<?xml version="1.0" encoding="UTF-8"?>
<svg id="CD_and_Large_Text" data-name="CD and Large Text" xmlns="http://www.w3.org/2000/svg" viewBox="0 0 194.16 112.559">
  <g>
    <path d="M59.998,17.729c1.577-1.841,3.642-3.537,6.208-5.082,6.655-4.009,14.927-6.013,24.816-6.013,9.279,0,18.749,1.529,28.41,4.586v-4.009c-9.698-2.65-19.035-3.975-28.011-3.975-11.41,0-21.242,2.333-29.494,6.998-3.953,2.235-6.948,4.735-9.008,7.494h7.078Z" fill="#fff"/>
    <path d="M66.263,42.644c-3.147-1.842-5.545-3.925-7.212-6.242h-6.971c2.005,3.192,5.195,6.051,9.591,8.57,8.081,4.632,18.189,6.947,30.321,6.947,9.393,0,18.806-1.483,28.239-4.45v-3.805c-10.231,3.239-19.681,4.858-28.353,4.858-10.383,0-18.921-1.959-25.615-5.877Z" fill="#fff"/>
    <path d="M131.622,73.596c-1.073.936-2.29,1.817-3.669,2.635-6.21,3.683-13.976,5.525-23.298,5.525h-20.331v-8.16h-5.573v11.147h26.214c12.247,0,21.699-2.184,28.355-6.554,2.147-1.409,3.942-2.941,5.397-4.593h-7.094Z" fill="#fff"/>
    <path d="M84.323,54.923v-13.552h19.97c9.735,0,17.665,1.881,23.788,5.641,3.656,2.246,6.211,4.884,7.685,7.91h6.313c-1.524-3.892-4.472-7.25-8.864-10.067-6.726-4.314-16.469-6.471-29.233-6.471h-25.234v16.538h5.573Z" fill="#fff"/>
  </g>
  <path d="M15.715,97.967v.844c-1.652-.644-3.271-.966-4.858-.966-1.691,0-3.106.422-4.244,1.267s-1.707,1.899-1.707,3.163c0,1.279.572,2.331,1.717,3.156s2.605,1.238,4.38,1.238c1.483,0,3.099-.341,4.848-1.023v.801c-1.613.625-3.223.937-4.829.937-2.074,0-3.803-.488-5.185-1.463s-2.073-2.191-2.073-3.646c0-1.465.706-2.689,2.117-3.671s3.092-1.474,5.044-1.474c1.535,0,3.131.279,4.79.837Z" fill="#fff"/>
  <path d="M28.975,107.256v-1.088h-.039c-.416.439-.844.751-1.283.937s-.997.279-1.673.279c-.962,0-1.759-.229-2.39-.687s-.946-1.107-.946-1.946v-4.079h.956v4.065c0,.61.228,1.09.683,1.438s1.047.522,1.775.522c.624,0,1.156-.105,1.595-.315s.879-.572,1.322-1.088v-4.623h.956v6.584h-.956Z" fill="#fff"/>
  <path d="M43.747,101.323l-.556.658c-.748-.501-1.35-.751-1.805-.751-.897,0-1.857.63-2.878,1.889v4.136h-.956v-6.584h.956v1.732h.039c1.073-1.24,2.12-1.861,3.141-1.861.585,0,1.272.26,2.058.78Z" fill="#fff"/>
  <path d="M56.948,106.111v.587c-.826.458-1.431.687-1.815.687-.221,0-.374-.054-.459-.161s-.146-.326-.185-.655c-.943.544-1.879.816-2.81.816-.677,0-1.249-.162-1.717-.487s-.702-.718-.702-1.181c0-.716.452-1.28,1.356-1.692s2.195-.65,3.873-.712v-.837c0-.897-.663-1.345-1.99-1.345-.845,0-1.759.279-2.741.837v-.723c1.015-.467,1.98-.701,2.897-.701.813,0,1.483.147,2.01.44s.79.719.79,1.277v4.1c0,.224.072.336.215.336.182,0,.608-.195,1.278-.587ZM54.49,105.953v-2.054c-1.229-.034-2.249.125-3.058.476s-1.215.798-1.215,1.342c0,.306.169.563.507.773s.761.315,1.268.315c.819,0,1.652-.284,2.497-.852Z" fill="#fff"/>
  <path d="M65.155,98.49v2.183h2.517v.572h-2.517v3.914c0,.63.07,1.043.21,1.242s.516.297,1.127.297c.468,0,1.015-.107,1.639-.322v.673c-.631.224-1.249.336-1.854.336-.592,0-1.086-.124-1.483-.372s-.595-.592-.595-1.03v-4.737h-2.419v-.572h2.419v-1.567l.654-.615h.302Z" fill="#fff"/>
  <path d="M82.17,103.721h-7.073c-.02.114-.029.229-.029.343,0,.735.358,1.358,1.073,1.868s1.561.766,2.536.766c1.138,0,2.25-.327,3.336-.98v.794c-1.028.582-2.179.873-3.453.873-1.294,0-2.364-.329-3.21-.988s-1.268-1.496-1.268-2.512c0-.964.39-1.762,1.171-2.394s1.762-.948,2.946-.948c1.112,0,2.052.285,2.819.855s1.151,1.344,1.151,2.322ZM75.225,103.155h5.814c-.338-1.283-1.284-1.925-2.839-1.925-.735,0-1.371.168-1.907.505s-.893.81-1.068,1.42Z" fill="#fff"/>
  <path d="M96.923,97.259v9.997h-.966v-.515c-.819.429-1.704.644-2.653.644-1.275,0-2.35-.331-3.224-.991s-1.312-1.473-1.312-2.437c0-.978.431-1.791,1.293-2.44s1.943-.973,3.244-.973c.826,0,1.711.177,2.653.53v-3.814h.966ZM95.957,106.097v-4.251c-.858-.41-1.73-.615-2.614-.615-1.034,0-1.886.252-2.556.755s-1.005,1.146-1.005,1.929c0,.796.358,1.46,1.073,1.989s1.61.794,2.683.794c.833,0,1.639-.2,2.419-.601Z" fill="#fff"/>
  <path d="M114.183,97.241h4.775c2.415,0,4.26.442,5.532,1.325s1.909,2.025,1.909,3.425c0,1.373-.63,2.506-1.89,3.401s-3.049,1.342-5.366,1.342h-4.961v-9.493ZM115.237,97.852v8.27h3.848c1.765,0,3.234-.377,4.409-1.131s1.763-1.754,1.763-3c0-1.218-.579-2.213-1.738-2.983s-2.659-1.155-4.502-1.155h-3.779Z" fill="#fff"/>
  <path d="M141.402,103.377h-7.08c-.02.109-.029.217-.029.326,0,.698.358,1.289,1.074,1.774s1.562.727,2.539.727c1.14,0,2.253-.311,3.34-.931v.754c-1.028.552-2.181.829-3.457.829-1.296,0-2.366-.313-3.213-.938s-1.27-1.42-1.27-2.385c0-.915.391-1.673,1.172-2.273s1.765-.9,2.949-.9c1.113,0,2.054.27,2.822.812s1.152,1.276,1.152,2.205ZM134.448,102.84h5.82c-.339-1.218-1.286-1.828-2.842-1.828-.735,0-1.372.16-1.909.479s-.894.769-1.069,1.349Z" fill="#fff"/>
  <path d="M153.367,100.89v.72c-.911-.426-1.731-.639-2.461-.639-.54,0-.996.102-1.367.305s-.557.454-.557.752c0,.213.112.408.339.586.226.179.847.404,1.865.678,1.018.274,1.683.558,1.995.852s.469.623.469.985c0,.484-.283.894-.85,1.227s-1.267.499-2.1.499c-.905,0-1.804-.19-2.695-.571v-.652c1.062.381,2.002.571,2.822.571.554,0,1.008-.102,1.362-.306s.532-.464.532-.781c0-.217-.115-.418-.347-.601-.231-.183-.856-.415-1.875-.696s-1.68-.559-1.982-.833-.454-.579-.454-.914c0-.476.281-.88.845-1.213s1.248-.499,2.056-.499c.735,0,1.536.177,2.402.53Z" fill="#fff"/>
  <path d="M161.729,97.241v1.142h-.967v-1.142h.967ZM161.729,100.482v6.251h-.967v-6.251h.967Z" fill="#fff"/>
  <path d="M176.566,100.482v.544h-2.041c.827.525,1.24,1.078,1.24,1.658,0,.521-.161.933-.483,1.237s-.706.525-1.152.663-1.04.274-1.782.408-1.208.26-1.396.377-.283.253-.283.408c0,.181.122.326.366.435s1.003.188,2.275.238,2.131.219,2.573.51.664.675.664,1.155c0,.566-.354,1.011-1.064,1.335s-1.696.486-2.959.486-2.227-.153-2.91-.459-1.025-.71-1.025-1.213c0-.815.872-1.32,2.617-1.515v-.027c-.97-.158-1.455-.455-1.455-.89,0-.44.599-.779,1.797-1.019v-.027c-.788-.163-1.385-.434-1.792-.812s-.61-.798-.61-1.26c0-.657.329-1.193.986-1.607s1.602-.622,2.832-.622h3.604ZM172.581,109.377c.931,0,1.672-.111,2.222-.333s.825-.514.825-.877c0-.734-.954-1.101-2.861-1.101-2.175,0-3.262.385-3.262,1.155s1.025,1.155,3.076,1.155ZM172.445,104.369c.657,0,1.223-.164,1.694-.493s.708-.722.708-1.179-.236-.848-.708-1.172-1.043-.486-1.714-.486c-.664,0-1.224.158-1.68.476s-.684.702-.684,1.155c0,.471.231.872.693,1.203s1.025.496,1.689.496Z" fill="#fff"/>
  <path d="M184.058,100.482v1.087h.039c.749-.807,1.735-1.21,2.959-1.21,1.016,0,1.826.226,2.432.68s.908,1.08.908,1.882v3.812h-.957v-3.561c0-1.441-.813-2.161-2.441-2.161-1.191,0-2.171.446-2.939,1.339v4.383h-.957v-6.251h.957Z" fill="#fff"/>
</svg>