<?xml version="1.0" encoding="UTF-8"?>
<svg xmlns="http://www.w3.org/2000/svg" viewBox="0 0 194.16 151.68">
  <g id="C">
    <path d="M40.18,24.862c2.419-2.826,5.589-5.427,9.526-7.798,10.212-6.151,22.905-9.227,38.079-9.227,14.239,0,28.77,2.346,43.594,7.037v-6.151c-14.882-4.066-29.208-6.099-42.981-6.099-17.508,0-32.595,3.58-45.257,10.738-6.065,3.429-10.662,7.265-13.822,11.499h10.861Z" fill="#fff"/>
    <path d="M49.793,63.094c-4.829-2.826-8.508-6.023-11.067-9.579h-10.697c3.076,4.898,7.972,9.284,14.717,13.15,12.4,7.107,27.91,10.66,46.527,10.66,14.414,0,28.857-2.276,43.331-6.829v-5.838c-15.699,4.97-30.2,7.454-43.506,7.454-15.932,0-29.034-3.006-39.305-9.018Z" fill="#fff"/>
  </g>
  <g id="D">
    <path d="M150.083,110.587c-1.646,1.437-3.514,2.788-5.63,4.044-9.529,5.652-21.446,8.478-35.75,8.478h-31.198v-12.522h-8.552v17.104h40.224c18.793,0,33.295-3.352,43.51-10.057,3.294-2.162,6.049-4.513,8.281-7.048h-10.886Z" fill="#fff"/>
    <path d="M77.505,81.935v-20.794h30.643c14.938,0,27.107,2.886,36.502,8.656,5.61,3.446,9.531,7.495,11.792,12.138h9.688c-2.338-5.972-6.862-11.125-13.601-15.448-10.321-6.62-25.272-9.929-44.856-9.929h-38.72v25.377h8.552Z" fill="#fff"/>
  </g>
  <g id="Text">
    <path d="M15.715,137.089v.844c-1.652-.644-3.271-.966-4.858-.966-1.691,0-3.106.422-4.244,1.267s-1.707,1.899-1.707,3.163c0,1.279.572,2.331,1.717,3.156s2.605,1.238,4.38,1.238c1.483,0,3.099-.341,4.848-1.023v.801c-1.613.625-3.223.937-4.829.937-2.074,0-3.803-.488-5.185-1.463s-2.073-2.191-2.073-3.646c0-1.465.706-2.689,2.117-3.671s3.092-1.474,5.044-1.474c1.535,0,3.131.279,4.79.837Z" fill="#fff"/>
    <path d="M28.975,146.377v-1.088h-.039c-.416.439-.844.751-1.283.937s-.997.279-1.673.279c-.962,0-1.759-.229-2.39-.687s-.946-1.107-.946-1.946v-4.079h.956v4.065c0,.61.228,1.09.683,1.438s1.047.522,1.775.522c.624,0,1.156-.105,1.595-.315s.879-.572,1.322-1.088v-4.623h.956v6.584h-.956Z" fill="#fff"/>
    <path d="M43.747,140.445l-.556.658c-.748-.501-1.35-.751-1.805-.751-.897,0-1.857.63-2.878,1.889v4.136h-.956v-6.584h.956v1.732h.039c1.073-1.24,2.12-1.861,3.141-1.861.585,0,1.272.26,2.058.78Z" fill="#fff"/>
    <path d="M56.948,145.232v.587c-.826.458-1.431.687-1.815.687-.221,0-.374-.054-.459-.161s-.146-.326-.185-.655c-.943.544-1.879.816-2.81.816-.677,0-1.249-.162-1.717-.487s-.702-.718-.702-1.181c0-.716.452-1.28,1.356-1.692s2.195-.65,3.873-.712v-.837c0-.897-.663-1.345-1.99-1.345-.845,0-1.759.279-2.741.837v-.723c1.015-.467,1.98-.701,2.897-.701.813,0,1.483.147,2.01.44s.79.719.79,1.277v4.1c0,.224.072.336.215.336.182,0,.608-.195,1.278-.587ZM54.49,145.075v-2.054c-1.229-.034-2.249.125-3.058.476s-1.215.798-1.215,1.342c0,.306.169.563.507.773s.761.315,1.268.315c.819,0,1.652-.284,2.497-.852Z" fill="#fff"/>
    <path d="M65.155,137.611v2.183h2.517v.572h-2.517v3.914c0,.63.07,1.043.21,1.242s.516.297,1.127.297c.468,0,1.015-.107,1.639-.322v.673c-.631.224-1.249.336-1.854.336-.592,0-1.086-.124-1.483-.372s-.595-.592-.595-1.03v-4.737h-2.419v-.572h2.419v-1.567l.654-.615h.302Z" fill="#fff"/>
    <path d="M82.17,142.842h-7.073c-.02.114-.029.229-.029.343,0,.735.358,1.358,1.073,1.868s1.561.766,2.536.766c1.138,0,2.25-.327,3.336-.98v.794c-1.028.582-2.179.873-3.453.873-1.294,0-2.364-.329-3.21-.988s-1.268-1.496-1.268-2.512c0-.964.39-1.762,1.171-2.394s1.762-.948,2.946-.948c1.112,0,2.052.285,2.819.855s1.151,1.344,1.151,2.322ZM75.225,142.277h5.814c-.338-1.283-1.284-1.925-2.839-1.925-.735,0-1.371.168-1.907.505s-.893.81-1.068,1.42Z" fill="#fff"/>
    <path d="M96.923,136.38v9.997h-.966v-.515c-.819.429-1.704.644-2.653.644-1.275,0-2.35-.331-3.224-.991s-1.312-1.473-1.312-2.437c0-.978.431-1.791,1.293-2.44s1.943-.973,3.244-.973c.826,0,1.711.177,2.653.53v-3.814h.966ZM95.957,145.218v-4.251c-.858-.41-1.73-.615-2.614-.615-1.034,0-1.886.252-2.556.755s-1.005,1.146-1.005,1.929c0,.796.358,1.46,1.073,1.989s1.61.794,2.683.794c.833,0,1.639-.2,2.419-.601Z" fill="#fff"/>
    <path d="M114.183,136.362h4.775c2.415,0,4.26.442,5.532,1.325s1.909,2.025,1.909,3.425c0,1.373-.63,2.506-1.89,3.401s-3.049,1.342-5.366,1.342h-4.961v-9.493ZM115.237,136.974v8.27h3.848c1.765,0,3.234-.377,4.409-1.131s1.763-1.754,1.763-3c0-1.218-.579-2.213-1.738-2.983s-2.659-1.155-4.502-1.155h-3.779Z" fill="#fff"/>
    <path d="M141.402,142.498h-7.08c-.02.109-.029.217-.029.326,0,.698.358,1.289,1.074,1.774s1.562.727,2.539.727c1.14,0,2.253-.311,3.34-.931v.754c-1.028.552-2.181.829-3.457.829-1.296,0-2.366-.313-3.213-.938s-1.27-1.42-1.27-2.385c0-.915.391-1.673,1.172-2.273s1.765-.9,2.949-.9c1.113,0,2.054.27,2.822.812s1.152,1.276,1.152,2.205ZM134.448,141.961h5.82c-.339-1.218-1.286-1.828-2.842-1.828-.735,0-1.372.16-1.909.479s-.894.769-1.069,1.349Z" fill="#fff"/>
    <path d="M153.367,140.011v.72c-.911-.426-1.731-.639-2.461-.639-.54,0-.996.102-1.367.305s-.557.454-.557.752c0,.213.112.408.339.586.226.179.847.404,1.865.678,1.018.274,1.683.558,1.995.852s.469.623.469.985c0,.484-.283.894-.85,1.227s-1.267.499-2.1.499c-.905,0-1.804-.19-2.695-.571v-.652c1.062.381,2.002.571,2.822.571.554,0,1.008-.102,1.362-.306s.532-.464.532-.781c0-.217-.115-.418-.347-.601-.231-.183-.856-.415-1.875-.696s-1.68-.559-1.982-.833-.454-.579-.454-.914c0-.476.281-.88.845-1.213s1.248-.499,2.056-.499c.735,0,1.536.177,2.402.53Z" fill="#fff"/>
    <path d="M161.729,136.362v1.142h-.967v-1.142h.967ZM161.729,139.603v6.251h-.967v-6.251h.967Z" fill="#fff"/>
    <path d="M176.566,139.603v.544h-2.041c.827.525,1.24,1.078,1.24,1.658,0,.521-.161.933-.483,1.237s-.706.525-1.152.663-1.04.274-1.782.408-1.208.26-1.396.377-.283.253-.283.408c0,.181.122.326.366.435s1.003.188,2.275.238,2.131.219,2.573.51.664.675.664,1.155c0,.566-.354,1.011-1.064,1.335s-1.696.486-2.959.486-2.227-.153-2.91-.459-1.025-.71-1.025-1.213c0-.815.872-1.32,2.617-1.515v-.027c-.97-.158-1.455-.455-1.455-.89,0-.44.599-.779,1.797-1.019v-.027c-.788-.163-1.385-.434-1.792-.812s-.61-.798-.61-1.26c0-.657.329-1.193.986-1.607s1.602-.622,2.832-.622h3.604ZM172.581,148.498c.931,0,1.672-.111,2.222-.333s.825-.514.825-.877c0-.734-.954-1.101-2.861-1.101-2.175,0-3.262.385-3.262,1.155s1.025,1.155,3.076,1.155ZM172.445,143.49c.657,0,1.223-.164,1.694-.493s.708-.722.708-1.179-.236-.848-.708-1.172-1.043-.486-1.714-.486c-.664,0-1.224.158-1.68.476s-.684.702-.684,1.155c0,.471.231.872.693,1.203s1.025.496,1.689.496Z" fill="#fff"/>
    <path d="M184.058,139.603v1.087h.039c.749-.807,1.735-1.21,2.959-1.21,1.016,0,1.826.226,2.432.68s.908,1.08.908,1.882v3.812h-.957v-3.561c0-1.441-.813-2.161-2.441-2.161-1.191,0-2.171.446-2.939,1.339v4.383h-.957v-6.251h.957Z" fill="#fff"/>
  </g>
</svg>