<?xml version="1.0" encoding="UTF-8"?>
<svg id="CD" xmlns="http://www.w3.org/2000/svg" viewBox="0 0 194.16 151.68">
  <path d="M40.18,35.544c2.419-2.826,5.589-5.427,9.526-7.798,10.212-6.151,22.905-9.227,38.079-9.227,14.239,0,28.77,2.346,43.594,7.037v-6.151c-14.882-4.066-29.208-6.099-42.981-6.099-17.508,0-32.595,3.58-45.257,10.738-6.065,3.429-10.662,7.265-13.822,11.499h10.861Z" fill="#fff"/>
  <path d="M49.793,73.775c-4.829-2.826-8.508-6.023-11.067-9.579h-10.697c3.076,4.898,7.972,9.284,14.717,13.15,12.4,7.107,27.91,10.66,46.527,10.66,14.414,0,28.857-2.276,43.331-6.829v-5.838c-15.699,4.97-30.2,7.454-43.506,7.454-15.932,0-29.034-3.006-39.305-9.018Z" fill="#fff"/>
  <path d="M150.083,121.269c-1.646,1.437-3.514,2.788-5.63,4.044-9.529,5.652-21.446,8.478-35.75,8.478h-31.198v-12.522h-8.552v17.104h40.224c18.793,0,33.295-3.352,43.51-10.057,3.294-2.162,6.049-4.513,8.281-7.048h-10.886Z" fill="#fff"/>
  <path d="M77.505,92.616v-20.794h30.643c14.938,0,27.107,2.886,36.502,8.656,5.61,3.446,9.531,7.495,11.792,12.138h9.688c-2.338-5.972-6.862-11.125-13.601-15.448-10.321-6.62-25.272-9.929-44.856-9.929h-38.72v25.377h8.552Z" fill="#fff"/>
</svg>